<?xml version="1.0" encoding="UTF-8"?><svg xmlns="http://www.w3.org/2000/svg" xmlns:xlink="http://www.w3.org/1999/xlink" height="191.0" preserveAspectRatio="xMidYMid meet" version="1.1" viewBox="98.8 117.1 228.4 191.0" width="228.4" zoomAndPan="magnify">
 <g id="surface1">
  <g id="change1_1"><path d="m313.89 190.64c-0.01-0.02-0.02-0.03-0.03-0.05l-49.2-51.6c-6.76-6.65-7.68-9.09-13.18-9.09-4.27 0-7.25 2.8-14.51 9.88l-47.58 50.8c-1.45 1.45-2.36 3.5-2.36 5.78v72.84c0 4.38 3.35 7.93 7.49 7.93h114.18c4.14 0 7.49-3.55 7.49-7.93v-72.84c0-2.25-0.89-4.27-2.3-5.72" fill="#f7e3b5"/></g>
  <g id="change2_1"><path d="m324.47 189.34l-69.56-69.56c-1.73-1.73-3.57-2.68-5.06-1.19 0 0-4.2 3.22-5.1 4.12l-66.75 66.75c-1.66 1.66-2.56 3.45-1.07 4.94l4.17 4.16c1.49 1.49 3.28 0.6 4.93-1.06l65.27-65.27 65.14 65.15c1.72 1.72 3.56 2.67 5.05 1.18l4.17-4.16c1.49-1.49 0.54-3.33-1.19-5.06" fill="#e0464c"/></g>
  <g id="change3_1"><path d="m270.19 277.13v-55.75c0-2.22-1.8-4-4-4h-29.8c-2.21 0-4 1.78-4 4v55.75h37.8" fill="#ea8342"/></g>
  <g id="change3_2"><path d="m263.41 182.11c0 6.69-5.43 12.12-12.12 12.12-6.7 0-12.13-5.43-12.13-12.12 0-6.7 5.43-12.13 12.13-12.13 6.69 0 12.12 5.43 12.12 12.13" fill="#ea8342"/></g>
  <g id="change4_1"><path d="m260.5 182.11c0 5.08-4.12 9.21-9.21 9.21s-9.22-4.13-9.22-9.21c0-5.09 4.13-9.22 9.22-9.22s9.21 4.13 9.21 9.22" fill="#a6d1ee"/></g>
  <g id="change5_1"><path d="m315.15 264.73c-1.32 0-2.54 0.43-3.54 1.15 0.09-0.37 0.14-0.76 0.14-1.15 0-2.67-2.13-4.83-4.75-4.83-1.68 0-3.15 0.88-4 2.21-0.84-1.33-2.31-2.21-3.99-2.21-0.89 0-1.72 0.26-2.43 0.69-0.62-2.76-3.05-4.82-5.96-4.82-2.98 0-5.46 2.17-6 5.03-0.78-0.56-1.73-0.9-2.76-0.9-1.37 0-2.59 0.59-3.46 1.52-1.09-1.74-2.99-2.9-5.17-2.9-3.38 0-6.12 2.78-6.12 6.21 0 0.16 0.01 0.33 0.03 0.49-0.74-0.31-1.55-0.49-2.4-0.49-3.38 0-6.12 2.77-6.12 6.2s2.74 6.2 6.12 6.2h50.41c3.38 0 6.12-2.77 6.12-6.2s-2.74-6.2-6.12-6.2" fill="#53c285"/></g>
  <g id="change5_2"><path d="m238.19 264.73c-1.32 0-2.54 0.43-3.54 1.15 0.09-0.37 0.14-0.76 0.14-1.15 0-2.67-2.13-4.83-4.75-4.83-1.68 0-3.15 0.88-4 2.21-0.84-1.33-2.31-2.21-3.99-2.21-0.89 0-1.72 0.26-2.43 0.69-0.62-2.76-3.05-4.82-5.96-4.82-2.98 0-5.46 2.17-6 5.03-0.78-0.56-1.73-0.9-2.77-0.9-1.36 0-2.59 0.59-3.45 1.52-1.09-1.74-2.99-2.9-5.17-2.9-3.38 0-6.12 2.78-6.12 6.21 0 0.16 0.01 0.33 0.03 0.49-0.74-0.31-1.55-0.49-2.4-0.49-3.38 0-6.12 2.77-6.12 6.2s2.74 6.2 6.12 6.2h50.41c3.38 0 6.11-2.77 6.11-6.2s-2.73-6.2-6.11-6.2" fill="#53c285"/></g>
  <g id="change6_1"><path d="m305.08 274.88h-68.48c-8.87-6.48-17.11-9.91-26.66-15.34-4.26-2.43-15.95-21.79-16.31-26.6-0.75-10.1-1.73-20.18-2.53-30.28-0.03-0.4-0.43-6.98-0.57-6.98-19.05 0-34.96 0.09-52.77 0.04-17.08-0.04-19.07 8.18-19.16 28.32-0.08 15.49-1.81 38.32 11.97 39.2 7.24 0.47 10.33 4.31 14.8 10.76 4.11 5.93 5.31 15.62 9.88 21.52 9.75 12.58 29.44 11.43 44.14 11.66 35.15 0.53 70.49-0.32 105.69-0.32 8.83 0 15.99-7.16 15.99-15.99s-7.16-15.99-15.99-15.99" fill="#f3bc98"/></g>
  <g id="change6_2"><path d="m257.26 249.82c-16.07-13.73-29.79-26.42-45.38-41.44-7.37-7.1-13-13.05-24.17-12.67-2.44 0.09-20.29-0.03-26.82 0.01l-14.53 28.05c1.05 0.61 24.83 0.25 25.83 0.84 30.27 17.86 38.65 35.58 69.23 53 7.68 4.37 17.44 1.7 21.81-5.98 4.38-7.67 1.39-15.47-5.97-21.81" fill="#f3bc98"/></g>
  <g id="change7_1"><path d="m125.29 186.32c4.16 0 7.53 3.37 7.53 7.53v79.68c0 4.16-3.37 7.53-7.53 7.53h-18.97c-4.15 0-7.523-3.37-7.523-7.53v-79.68c0-4.16 3.373-7.53 7.523-7.53h18.97" fill="#7cb4d4"/></g>
 </g>
</svg>