<svg xmlns="http://www.w3.org/2000/svg" xmlns:xlink="http://www.w3.org/1999/xlink" preserveAspectRatio="xMidYMid meet" version="1.0" viewBox="5.0 3.0 26.0 33.0" zoomAndPan="magnify" style="fill: rgb(0, 0, 0);" role="img" aria-label="locked"><g id="__id69_s5xhnfvp7"><path d="M18 3C12.477 3 8 7.477 8 13v10h4V13c0-3.313 2.686-6 6-6s6 2.687 6 6v10h4V13c0-5.523-4.477-10-10-10z" style="fill: rgb(32, 131, 144);"></path></g><g id="__id70_s5xhnfvp7"><path d="M31 32c0 2.209-1.791 4-4 4H9c-2.209 0-4-1.791-4-4V20c0-2.209 1.791-4 4-4h18c2.209 0 4 1.791 4 4v12z" style="fill: rgb(243, 177, 51);"></path></g></svg>