<svg xmlns="http://www.w3.org/2000/svg" xmlns:xlink="http://www.w3.org/1999/xlink" height="158.7" preserveAspectRatio="xMidYMid meet" version="1.1" viewBox="99.2 133.3 227.9 158.7" width="227.9" zoomAndPan="magnify">
 <g id="surface1" style="&#10;">
  <g id="change1_1"><path d="m216.59 226.74s16.11 1.94 31.48 3.3c9.14 0.8 10.05-5.68 9.95-8.15-0.19-4.94-5.78-5.86-5.78-5.86s-36.41-8.03-41.53-8.64c-5.12-0.62-10.81 0-19.34 4.32s-35.27 16.06-35.27 16.06v43.23s70.61 5.27 79.07 6.8c9.37 1.7 18.21-3.91 18.21-3.91 19.34-9.68 61.44-27.73 66.55-31.24 7.21-4.94 5.98-10.09 5.98-10.09 0-3.7-7.11-5.56-7.11-5.56-14.04-2.67-55.94 13.07-55.94 13.07-2.85 0-39.76-7.51-39.76-7.51s-4.42-4.17-6.51-5.82" fill="#f9b57c"/></g>
  <g id="change2_1"><path d="m238.82 278.12c-1.2 0-2.42-0.1-3.65-0.32h-0.01 0.01c1.23 0.22 2.45 0.32 3.65 0.32 7.89 0 14.56-4.23 14.56-4.23 19.34-9.68 61.44-27.73 66.55-31.24 0.01 0 0.02-0.01 0.02-0.01s-0.01 0.01-0.02 0.01c-5.11 3.51-47.21 21.56-66.55 31.24 0 0-6.67 4.23-14.56 4.23m-3.66-0.32h-0.01 0.01m-0.01 0s-0.01 0-0.01-0.01c0 0.01 0.01 0.01 0.01 0.01m-0.01-0.01h-0.01 0.01m-0.02 0m-0.01 0h-0.01 0.01m-0.02 0m-0.01-0.01m-0.01 0h-0.01 0.01m-0.02 0m-42.17-3.92c-14.72-1.18-28.85-2.26-34.36-2.67 5.51 0.41 19.64 1.49 34.36 2.67m127.08-31.23s0.01 0 0.01-0.01c0 0.01-0.01 0.01-0.01 0.01m0.02-0.02h0.01-0.01m0.02-0.01m2.39-1.92m0.01-0.02m0.01-0.01s0.01 0 0.01-0.01c0 0.01-0.01 0.01-0.01 0.01m0.02-0.01c0.01-0.02 0.02-0.03 0.04-0.04-0.02 0.01-0.03 0.03-0.04 0.04m0.04-0.04c3.66-3.55 3.59-6.81 3.48-7.76 0.11 0.94 0.18 4.21-3.48 7.76" fill="#f0be97"/></g>
  <g id="change3_1"><path d="m238.82 278.12c-1.2 0-2.42-0.1-3.65-0.32h-0.01-0.01s-0.01 0-0.01-0.01h-0.01-0.01-0.01-0.01-0.01c-0.01 0-0.01 0-0.01-0.01h-0.01-0.01-0.01c-4.44-0.77-23.76-2.43-42.17-3.92-14.72-1.18-28.85-2.26-34.36-2.67l9.09-22.25s55.46 17.09 67.93 18.01c0.16 0.01 0.32 0.02 0.5 0.02 12.04 0 73.05-26.66 89.91-34.13 0.11 0.95 0.18 4.21-3.48 7.76-0.02 0.01-0.03 0.02-0.04 0.04h-0.01c0 0.01-0.01 0.01-0.01 0.01 0 0.01 0 0.01-0.01 0.01-0.01 0.01-0.01 0.01-0.01 0.02-0.67 0.63-1.46 1.28-2.39 1.92 0 0.01-0.01 0.01-0.01 0.01h-0.01c0 0.01-0.01 0.01-0.01 0.01 0 0.01-0.01 0.01-0.01 0.01l-0.01 0.01s-0.01 0.01-0.02 0.01c-5.11 3.51-47.21 21.56-66.55 31.24 0 0-6.67 4.23-14.56 4.23" fill="#eea36b"/></g>
  <g id="change4_1"><path d="m142.73 283.98h26.74v-64.86h-26.74v64.86" fill="#f2f1f9"/></g>
  <g id="change5_1"><path d="m99.215 291.93h56.885v-73.45h-56.885v73.45" fill="#2c5189"/></g>
  <g id="change6_1"><path d="m293.84 172.89c0 21.88-17.73 39.62-39.62 39.62-21.88 0-39.61-17.74-39.61-39.62s17.73-39.62 39.61-39.62c21.89 0 39.62 17.74 39.62 39.62" fill="#fbcb41"/></g>
  <g id="change7_1"><path d="m216.85 186.03c5.42 15.42 20.1 26.48 37.37 26.48 21.89 0 39.62-17.74 39.62-39.62 0-7.03-1.83-13.62-5.04-19.34-9.88 49.89-54.73 38.77-71.95 32.48" fill="#efb732"/></g>
  <g id="change8_1"><path d="m285.55 172.89c0 17.3-14.02 31.33-31.33 31.33-17.3 0-31.33-14.03-31.33-31.33s14.03-31.33 31.33-31.33c17.31 0 31.33 14.03 31.33 31.33" fill="#c96a1b"/></g>
  <g id="change9_1"><path d="m282.6 172.89c0 15.67-12.71 28.37-28.38 28.37s-28.37-12.7-28.37-28.37 12.7-28.37 28.37-28.37 28.38 12.7 28.38 28.37" fill="#e98323"/></g>
  <g id="change10_1"><path d="m279.11 159.25c-1.11 14.65-13.35 26.2-28.29 26.2-10.72 0-20.05-5.95-24.88-14.73-0.05 0.72-0.09 1.44-0.09 2.17 0 15.67 12.7 28.37 28.37 28.37s28.38-12.7 28.38-28.37c0-4.95-1.27-9.6-3.49-13.64" fill="#d9741e"/></g>
  <g id="change6_2"><path d="m264.38 163.52c0.02-0.1 0.27-1.08 0.28-2.4-0.01-0.75-0.08-1.61-0.43-2.54-0.17-0.47-0.42-0.95-0.79-1.4-0.36-0.44-0.85-0.85-1.42-1.14-0.44-0.22-0.87-0.37-1.37-0.51-1.46-0.41-3.47-0.72-5.62-0.72-1.87 0.01-3.83 0.22-5.63 1.02-0.9 0.41-1.77 0.99-2.46 1.83s-1.16 1.95-1.25 3.13c-0.04 0.39-0.06 0.77-0.06 1.16 0 2.94 1.01 5.5 2.35 7.47 1.36 1.98 3.01 3.4 4.63 4.24 1.17 0.6 3.01 1.71 4.43 2.95 0.71 0.62 1.3 1.27 1.67 1.84 0.38 0.58 0.49 1.02 0.49 1.28 0 0.93 0.04 1.89 0.04 2.79 0 0.68-0.02 1.33-0.09 1.88-0.1 0.85-0.33 1.44-0.53 1.69-0.09 0.14-0.18 0.21-0.3 0.28-0.13 0.08-0.33 0.15-0.67 0.19-1.31 0.16-2.83 0.34-4.26 0.34-0.81 0-1.58-0.06-2.24-0.19-0.49-0.1-0.92-0.25-1.26-0.41-0.52-0.26-0.84-0.54-1.09-0.97-0.25-0.42-0.47-1.07-0.47-2.16h-1.71l1.7 0.04 0.01-0.04h-1.71l1.7 0.04-2.09-0.05 2.09 0.2v-0.15l-2.09-0.05 2.09 0.2c0.11-1.25-0.8-2.35-2.05-2.47-1.25-0.11-2.36 0.8-2.47 2.05-0.01 0.15-0.01 0.22-0.01 0.23 0 1.52 0.28 2.89 0.87 4.06 0.44 0.87 1.05 1.61 1.75 2.19 1.05 0.87 2.25 1.36 3.44 1.64 1.19 0.29 2.39 0.37 3.54 0.38 1.79-0.01 3.49-0.22 4.79-0.37 1.13-0.13 2.2-0.54 3.04-1.19 0.63-0.49 1.11-1.1 1.46-1.73 0.53-0.94 0.78-1.92 0.93-2.87 0.14-0.94 0.17-1.88 0.17-2.76 0-1.04-0.05-2.01-0.05-2.79 0-1.44-0.53-2.7-1.22-3.75-1.04-1.59-2.47-2.85-3.9-3.91-1.42-1.06-2.85-1.89-3.93-2.44-0.82-0.41-2.04-1.41-2.95-2.76-0.92-1.35-1.56-3.02-1.56-4.92 0-0.25 0.01-0.5 0.03-0.76 0.04-0.34 0.11-0.48 0.25-0.65 0.11-0.14 0.27-0.28 0.53-0.43 0.39-0.23 0.98-0.43 1.7-0.57 0.71-0.13 1.52-0.2 2.35-0.2 1.13 0 2.27 0.12 3.2 0.28 0.46 0.09 0.87 0.18 1.18 0.27s0.54 0.18 0.55 0.19l0.05-0.09-0.08 0.07 0.03 0.03 0.05-0.1-0.08 0.07s0.06 0.08 0.11 0.28 0.08 0.48 0.08 0.78c0 0.34-0.04 0.7-0.08 0.96-0.02 0.13-0.04 0.23-0.05 0.29l-0.01 0.07 0.11 0.02-0.11-0.03v0.01l0.11 0.02-0.11-0.03c-0.3 1.22 0.44 2.45 1.65 2.75 1.22 0.3 2.45-0.44 2.75-1.66" fill="#fbcb41"/></g>
  <g id="change6_3"><path d="m255.11 152.77v4.31c0 1.25 1.01 2.26 2.27 2.26 1.25 0 2.26-1.01 2.26-2.26v-4.31c0-1.25-1.01-2.27-2.26-2.27-1.26 0-2.27 1.02-2.27 2.27" fill="#fbcb41"/></g>
  <g id="change6_4"><path d="m249.06 152.77v4.31c0 1.25 1.01 2.26 2.27 2.26 1.25 0 2.27-1.01 2.27-2.26v-4.31c0-1.25-1.02-2.27-2.27-2.27-1.26 0-2.27 1.02-2.27 2.27" fill="#fbcb41"/></g>
  <g id="change6_5"><path d="m254.6 189.17v3.83c0 1.26 1.02 2.27 2.27 2.27s2.27-1.01 2.27-2.27v-3.83c0-1.26-1.02-2.27-2.27-2.27s-2.27 1.01-2.27 2.27" fill="#fbcb41"/></g>
  <g id="change6_6"><path d="m248.55 189.17v3.83c0 1.26 1.02 2.27 2.27 2.27s2.27-1.01 2.27-2.27v-3.83c0-1.26-1.02-2.27-2.27-2.27s-2.27 1.01-2.27 2.27" fill="#fbcb41"/></g>
 </g>
</svg>