<svg xmlns="http://www.w3.org/2000/svg" xmlns:xlink="http://www.w3.org/1999/xlink" preserveAspectRatio="xMidYMid meet" version="1.0" viewBox="4.2 6.1 85.5 81.6" zoomAndPan="magnify" style="fill: rgb(0, 0, 0);" role="img" aria-label="Graphical Report Icon"><g data-name="Layer 5"><g id="__id92_s9mur1ioi7"><path d="M51.65,80H41.77a1.25,1.25,0,0,1-1.25-1.25V51.06a1.25,1.25,0,0,1,1.25-1.25h9.88a1.25,1.25,0,0,1,1.25,1.25V78.75A1.25,1.25,0,0,1,51.65,80Z" style="fill: rgb(255, 109, 85);"></path></g><g id="__id93_s9mur1ioi7"><path d="M86.56,80H76.69a1.25,1.25,0,0,1-1.25-1.25V34.33a1.25,1.25,0,0,1,1.25-1.25h9.87a1.25,1.25,0,0,1,1.25,1.25V78.75A1.25,1.25,0,0,1,86.56,80Z" style="fill: rgb(0, 0, 0);"></path></g><g id="__id94_s9mur1ioi7"><path d="M69.1,80H59.23A1.25,1.25,0,0,1,58,78.75V60.53a1.25,1.25,0,0,1,1.25-1.25H69.1a1.25,1.25,0,0,1,1.25,1.25V78.75A1.25,1.25,0,0,1,69.1,80Z" style="fill: rgb(255, 255, 255);"></path></g><g id="__id95_s9mur1ioi7"><path d="M34.19,80H24.31a1.25,1.25,0,0,1-1.25-1.25V71.54a1.25,1.25,0,0,1,1.25-1.25h9.88a1.25,1.25,0,0,1,1.25,1.25v7.21A1.25,1.25,0,0,1,34.19,80Z" style="fill: rgb(253, 208, 76);"></path></g><g id="__id96_s9mur1ioi7"><path d="M76.5,26.89a1.25,1.25,0,0,1-1.25-1.25V13.38H63a1.25,1.25,0,0,1,0-2.5H76.5a1.25,1.25,0,0,1,1.25,1.25V25.64A1.25,1.25,0,0,1,76.5,26.89Z" style="fill: rgb(0, 0, 0);"></path></g><g id="__id97_s9mur1ioi7"><path d="M18.79,50.78a1.25,1.25,0,0,1-.92-2.1L35.31,29.86a1.08,1.08,0,0,1,.93-.4,1.28,1.28,0,0,1,.93.43l9.58,11,28-29a1.25,1.25,0,1,1,1.79,1.74l-28.92,30a1.35,1.35,0,0,1-.93.38,1.25,1.25,0,0,1-.92-.43l-9.56-11L19.71,50.38A1.25,1.25,0,0,1,18.79,50.78Z" style="fill: rgb(0, 0, 0);"></path></g><g id="__id98_s9mur1ioi7"><path d="M12.3,80.29H5.49a1.25,1.25,0,1,1,0-2.5H12.3a1.25,1.25,0,0,1,0,2.5Z" style="fill: rgb(255, 255, 255);"></path></g><g id="__id99_s9mur1ioi7"><path d="M12.3,67H5.49a1.25,1.25,0,1,1,0-2.5H12.3a1.25,1.25,0,0,1,0,2.5Z" style="fill: rgb(255, 255, 255);"></path></g><g id="__id100_s9mur1ioi7"><path d="M12.3,53.65H5.49a1.25,1.25,0,0,1,0-2.5H12.3a1.25,1.25,0,1,1,0,2.5Z" style="fill: rgb(255, 255, 255);"></path></g><g id="__id101_s9mur1ioi7"><path d="M12.3,40.32H5.49a1.25,1.25,0,0,1,0-2.5H12.3a1.25,1.25,0,1,1,0,2.5Z" style="fill: rgb(255, 255, 255);"></path></g><g id="__id102_s9mur1ioi7"><path d="M12.3,27H5.49a1.25,1.25,0,0,1,0-2.5H12.3a1.25,1.25,0,0,1,0,2.5Z" style="fill: rgb(255, 255, 255);"></path></g><g id="__id103_s9mur1ioi7"><path d="M12.3,13.68H5.49a1.25,1.25,0,0,1,0-2.5H12.3a1.25,1.25,0,0,1,0,2.5Z" style="fill: rgb(255, 255, 255);"></path></g><g id="__id104_s9mur1ioi7"><path d="M88.41,87.68H5.49a1.25,1.25,0,0,1-1.25-1.25V7.37a1.25,1.25,0,1,1,2.5,0V85.18H88.41a1.25,1.25,0,0,1,0,2.5Z" style="fill: rgb(255, 255, 255);"></path></g></g></svg>