<svg xmlns="http://www.w3.org/2000/svg" xmlns:xlink="http://www.w3.org/1999/xlink" preserveAspectRatio="xMidYMid meet" version="1.1" viewBox="125.5 132.6 174.3 160.0" zoomAndPan="magnify" style="fill: rgb(0, 0, 0);" role="img" aria-label="Wallet with Bill Cash Flat Icon">
 <g id="__id111_sxjfifaz2j">
  <g id="__id112_sxjfifaz2j"><path d="m180.75 178.16l61.95-45.57 38.58 45.57z" style="fill: rgb(63, 187, 105);"></path></g>
  <path d="m2285.2 2754.1l131.7 99.8 105.9-124.1" stroke="#fff" stroke-linecap="round" stroke-linejoin="round" stroke-miterlimit="10" stroke-width="30" transform="matrix(.1 0 0 -.1 0 425.2)" style="fill: none;"></path>
  <g id="__id113_sxjfifaz2j"><path d="m245.24 179.75c0.78-1.82 1.21-3.82 1.21-5.93 0-8.43-6.91-15.26-15.43-15.26-8.53 0-15.44 6.83-15.44 15.26 0 2.11 0.43 4.11 1.21 5.93h28.45" style="fill: rgb(255, 255, 255);"></path></g>
  <g id="__id114_sxjfifaz2j"><path d="m145.01 179.58l70.57-39.77 29.96 39.77z" style="fill: rgb(63, 187, 105);"></path></g>
  <g id="__id115_sxjfifaz2j"><path d="m215.18 181.17c0.77-1.82 1.2-3.83 1.2-5.93 0-8.43-6.91-15.26-15.43-15.26s-15.43 6.83-15.43 15.26c0 2.1 0.43 4.11 1.21 5.93h28.45" style="fill: rgb(255, 255, 255);"></path></g>
  <path d="m2003.3 2723.2l133.1 77 97.5-133.8" stroke="#fff" stroke-linecap="round" stroke-linejoin="round" stroke-miterlimit="10" stroke-width="30" transform="matrix(.1 0 0 -.1 0 425.2)" style="fill: none;"></path>
  <g id="__id116_sxjfifaz2j"><path d="m289.63 275.09c0 9.68-7.48 17.52-16.7 17.52h-130.77c-9.22 0-16.7-7.84-16.7-17.52v-82.26c0-9.68 7.48-17.53 16.7-17.53h130.77c9.22 0 16.7 7.85 16.7 17.53v82.26" style="fill: rgb(243, 177, 51);"></path></g>
  <g id="__id117_sxjfifaz2j"><path d="m299.74 212.98h-54.3c-12.18 0-22.05 9.39-22.05 20.98s9.87 20.98 22.05 20.98h54.3v-41.96" style="fill: rgb(84, 84, 84);"></path></g>
  <g id="__id118_sxjfifaz2j"><path d="m249.71 233.96c0 4.69-3.8 8.5-8.5 8.5-4.69 0-8.5-3.81-8.5-8.5s3.81-8.5 8.5-8.5c4.7 0 8.5 3.81 8.5 8.5" style="fill: rgb(32, 131, 144);"></path></g>
 </g>
</svg>